<svg id="Layer_1" data-name="Layer 1" xmlns="http://www.w3.org/2000/svg" viewBox="0 0 127.3 122.25"><defs><style>.cls-1,.cls-3{fill:#0b2d47;}.cls-1,.cls-2{fill-rule:evenodd;}</style></defs><title>covenant revisi - conly</title><path class="cls-1" d="M294.06,236.51a60.93,60.93,0,0,1,43.57,18.26l-10.51,11A45.39,45.39,0,0,0,294,251.51a46.25,46.25,0,0,0-37.22,73l-1.54,1.36a48.07,48.07,0,0,1-8-18.34l-3.07,1.19A51.67,51.67,0,0,0,252.81,328h0a49.66,49.66,0,0,1-3.24-5.08l-2.87,2.73a50.79,50.79,0,0,0,13.73,15.75l2.43-3a51.57,51.57,0,0,1-9.05-9.09h0a51.23,51.23,0,0,0,20.9,16l1.25-3a48.1,48.1,0,0,1-19.7-15.12l1.53-1.35a45.77,45.77,0,0,0,24.75,16.51l9.51,16.39a61,61,0,0,1-45.77-23l2.35-4.85-8.24-4a60.79,60.79,0,0,1-7.34-25.24h4.79V287.39h-4.06a60.79,60.79,0,0,1,5.82-17.56v2.23H249v-9.94h-4.7a61.37,61.37,0,0,1,20.94-18.4l1.2,2.06,0,0,.8,1.31h0l.68,1.12h0l1.45,2.33a51.57,51.57,0,0,1,12.14-4.64l-2-2.31a54.9,54.9,0,0,1,24.56-1l-.4-3a57.47,57.47,0,0,0-33.1,4.1l-1.11-2.08A60.82,60.82,0,0,1,294.06,236.51Z" transform="translate(-210.33 -236.51)"/><path class="cls-2" d="M258.86,277.31A40,40,0,0,1,283.57,259c8.4-.47,12.81-3.83,14.28-7.33-1.24-.1-2.5-.15-3.76-.15a46.15,46.15,0,0,0-36.82,18.33h0A48.86,48.86,0,0,0,248,297.55a45.51,45.51,0,0,0,6.23,22.83c.21.39.42.78.64,1.17.61,1,1.26,2,1.94,3l-.07.07c.31.46.62.92.95,1.37l.11-.09a45.77,45.77,0,0,0,24.75,16.51l0,0c1,.23,2.08.43,3.17.6a46.63,46.63,0,0,0,15.45.24h0a45.65,45.65,0,0,0,6.84-1.59,46.23,46.23,0,0,0,24.61-19.05l-5-3.78-.08.13a40,40,0,0,1-55.06,13.69A40.42,40.42,0,0,1,258.86,277.31Z" transform="translate(-210.33 -236.51)"/><rect class="cls-3" x="25.14" y="22.89" width="9.41" height="9.94"/><rect class="cls-3" x="22.35" y="16.28" width="4.7" height="4.97"/><rect class="cls-3" x="9.4" y="48.44" width="13.54" height="14.31"/><rect class="cls-3" x="3.67" y="63.68" width="9.51" height="10.06"/><rect class="cls-3" x="2.39" y="49.12" width="4.76" height="5.03"/><rect class="cls-3" y="55.35" width="2.38" height="2.51"/><rect class="cls-3" x="234.99" y="329.4" width="10.06" height="9.51" transform="translate(-375.7 167.85) rotate(-64.14)"/><rect class="cls-3" x="228.67" y="330.22" width="5.05" height="4.77" transform="translate(-379.28 159.02) rotate(-64.13)"/><rect class="cls-3" x="243.19" y="341.71" width="3.46" height="3.27" transform="translate(-381.21 177.42) rotate(-64.13)"/><rect class="cls-3" x="235.04" y="341.54" width="2.32" height="2.19" transform="translate(-385.5 169.14) rotate(-64.13)"/><path class="cls-2" d="M324.72,294.28a5.11,5.11,0,1,1-4.82,6.81H308.83a13.89,13.89,0,1,1,0-3.81h11.23a5.12,5.12,0,0,1,4.66-3Zm-24.35,6.35h-2.16l.3-2.06H301V296.4h-2.17l.71-4.85h-2.19l-.71,4.85h-2.08l.68-4.85h-2.15l-.72,4.85h-2.76v2.17h2.44l-.31,2.06h-2.82v2.18h2.5l-.78,5.24h2.2l.76-5.24h2.09l-.77,5.24h2.2l.77-5.24h2.48v-2.18Zm-4.06-2.06h-2.09l-.3,2.06H296l.3-2.06Zm28.41-1.33a2.15,2.15,0,1,0,2.14,2.15A2.15,2.15,0,0,0,324.72,297.24Z" transform="translate(-210.33 -236.51)"/><path class="cls-2" d="M294.41,358.67a61.36,61.36,0,0,0,41.67-17.4l-10.77-6a46.2,46.2,0,0,1-15.73,8.83,44.45,44.45,0,0,1-6.84,1.59h0a45.11,45.11,0,0,1-7,.52,48.21,48.21,0,0,1-8.52-.44l-.21-.38Z" transform="translate(-210.33 -236.51)"/></svg>